<!DOCTYPE svg PUBLIC "-//W3C//DTD SVG 1.1//EN" "http://www.w3.org/Graphics/SVG/1.1/DTD/svg11.dtd">
<!-- Uploaded to: SVG Repo, www.svgrepo.com, Transformed by: SVG Repo Mixer Tools -->
<svg fill="#e82448" version="1.1" id="Capa_1" xmlns="http://www.w3.org/2000/svg" xmlns:xlink="http://www.w3.org/1999/xlink" width="800px" height="800px" viewBox="0 0 375.311 375.311" xml:space="preserve" stroke="#e82448">
<g id="SVGRepo_bgCarrier" stroke-width="0"/>
<g id="SVGRepo_tracerCarrier" stroke-linecap="round" stroke-linejoin="round"/>
<g id="SVGRepo_iconCarrier"> <g> <g> <path d="M53.597,39.612v5.231v325.432v5.035h268.117V44.843h-43.646V0L53.597,39.612z M66.067,182.866 c7.365-7.642,44.183-40.639,106.423-10.812c43.522,20.861,74.218,18.688,93.106,12.422c1.205-0.398,2.368-0.816,3.482-1.242 c-1.047,1.498-2.216,3.045-3.482,4.615c-10.188,12.69-27.858,27.438-57.628,34.892c-20.128,5.029-36.164,1.54-51.664-1.827 c-27.553-5.992-53.712-11.654-90.238,34.672V182.866z M309.243,57.313V362.84H95.709H66.067v-1.096v-6.326v-50.267 c0.81-0.414,1.553-0.986,2.137-1.753c41.005-53.98,61.976-48.19,91.036-40.158c15.896,4.396,33.92,9.383,57.156,4.926 c21.153-4.056,37.144-11.66,49.206-20.167c2.198-1.56,4.293-3.13,6.235-4.737c2.247-1.857,4.305-3.727,6.235-5.603 c15.667-15.223,20.855-30.116,21.208-31.213c1.084-3.264-0.682-6.771-3.945-7.854c-3.228-1.103-6.771,0.657-7.886,3.921 c-0.237,0.688-2.758,7.647-9.383,16.417c-1.778,2.35-3.824,4.816-6.235,7.35c-1.857,1.941-3.971,3.915-6.235,5.875 c-11.229,9.719-27.669,19.193-51.563,23.767c-20.38,3.903-36.193-0.469-51.48-4.694c-28.189-7.789-54.915-15.15-96.492,34.829 v-9.328c37.263-54.511,58.432-49.938,87.586-43.616c16.112,3.501,34.395,7.471,57.335,1.734 c25.179-6.296,42.601-17.317,54.608-28.582c2.283-2.144,4.329-4.274,6.235-6.406c2.332-2.611,4.42-5.176,6.234-7.672 c9.055-12.437,12.008-22.673,12.258-23.589c0.73-2.725-0.463-5.587-2.917-7.008c-2.441-1.422-5.559-0.987-7.55,1.007 c-0.152,0.159-0.756,0.737-1.791,1.565c-1.327,1.068-3.397,2.552-6.234,4.122c-1.778,0.987-3.849,2.004-6.235,2.969 c-15.521,6.299-44.08,10.471-87.718-10.437c-55.725-26.713-94.123-7.733-111.812,5.642V57.313h199.53h6.235h6.234H309.243z"/> <path d="M290.538,125.902h-12.471h-6.235h-6.235H84.773c-3.45,0-6.235,2.795-6.235,6.235c0,3.44,2.786,6.235,6.235,6.235h180.824 h6.235h6.235h12.471c3.446,0,6.235-2.795,6.235-6.235C296.773,128.697,293.984,125.902,290.538,125.902z"/> <polygon points="72.302,63.549 72.302,107.196 115.949,63.549 "/> <polygon points="271.832,63.549 265.597,63.549 259.361,63.549 265.597,69.784 271.832,76.02 278.067,82.255 303.008,107.196 303.008,63.549 278.067,63.549 "/> <polygon points="107.452,348.11 72.302,312.958 72.302,354.315 72.302,356.605 95.167,356.605 115.949,356.605 112.832,353.487 "/> <polygon points="303.008,356.605 303.008,312.958 259.361,356.605 "/> <path d="M234.42,300.487h-93.529c-3.45,0-6.235,2.801-6.235,6.235c0,3.446,2.786,6.235,6.235,6.235h93.529 c3.446,0,6.235-2.789,6.235-6.235C240.655,303.288,237.866,300.487,234.42,300.487z"/> <path d="M234.42,319.193h-93.529c-3.45,0-6.235,2.801-6.235,6.235c0,3.446,2.786,6.235,6.235,6.235h59.734h33.795 c3.446,0,6.235-2.789,6.235-6.235c0-0.28-0.122-0.524-0.158-0.792C240.089,321.58,237.58,319.193,234.42,319.193z"/> </g> </g> </g>
</svg>